<svg
            height="25"
            viewBox="0 0 47 15"
            fill="none"
            xmlns="http://www.w3.org/2000/svg"
          >
            <path
              fill-rule="evenodd"
              clip-rule="evenodd"
              d="M0 13.1243L7.14307 7.08012L0.0305481 1L0.015564 6.94717L1.76602 5.37782L3.43488 7.23926L0.00708008 10.3124L0 13.1243Z"
              fill="#be317a"
            />
            <path
              d="M14.0568 12V3.27273H15.1136V11.0625H19.1705V12H14.0568ZM27.8306 7.63636C27.8306 8.55682 27.6644 9.35227 27.332 10.0227C26.9996 10.6932 26.5437 11.2102 25.9641 11.5739C25.3846 11.9375 24.7227 12.1193 23.9783 12.1193C23.234 12.1193 22.5721 11.9375 21.9925 11.5739C21.413 11.2102 20.957 10.6932 20.6246 10.0227C20.2923 9.35227 20.1261 8.55682 20.1261 7.63636C20.1261 6.71591 20.2923 5.92045 20.6246 5.25C20.957 4.57955 21.413 4.0625 21.9925 3.69886C22.5721 3.33523 23.234 3.15341 23.9783 3.15341C24.7227 3.15341 25.3846 3.33523 25.9641 3.69886C26.5437 4.0625 26.9996 4.57955 27.332 5.25C27.6644 5.92045 27.8306 6.71591 27.8306 7.63636ZM26.8079 7.63636C26.8079 6.88068 26.6815 6.2429 26.4286 5.72301C26.1786 5.20312 25.8391 4.80966 25.4102 4.54261C24.984 4.27557 24.5067 4.14205 23.9783 4.14205C23.4499 4.14205 22.9712 4.27557 22.5423 4.54261C22.1161 4.80966 21.7766 5.20312 21.5238 5.72301C21.2738 6.2429 21.1488 6.88068 21.1488 7.63636C21.1488 8.39205 21.2738 9.02983 21.5238 9.54972C21.7766 10.0696 22.1161 10.4631 22.5423 10.7301C22.9712 10.9972 23.4499 11.1307 23.9783 11.1307C24.5067 11.1307 24.984 10.9972 25.4102 10.7301C25.8391 10.4631 26.1786 10.0696 26.4286 9.54972C26.6815 9.02983 26.8079 8.39205 26.8079 7.63636ZM35.5735 6C35.4798 5.71307 35.3562 5.45597 35.2028 5.22869C35.0522 4.99858 34.8718 4.80256 34.6616 4.64062C34.4542 4.47869 34.2184 4.35511 33.9542 4.26989C33.69 4.18466 33.4002 4.14205 33.0849 4.14205C32.5678 4.14205 32.0977 4.27557 31.6744 4.54261C31.2511 4.80966 30.9144 5.20312 30.6644 5.72301C30.4144 6.2429 30.2894 6.88068 30.2894 7.63636C30.2894 8.39205 30.4158 9.02983 30.6687 9.54972C30.9215 10.0696 31.2638 10.4631 31.6957 10.7301C32.1275 10.9972 32.6133 11.1307 33.1531 11.1307C33.6531 11.1307 34.0934 11.0241 34.4741 10.8111C34.8576 10.5952 35.1559 10.2912 35.369 9.89915C35.5849 9.50426 35.6928 9.03977 35.6928 8.50568L36.0167 8.57386H33.3917V7.63636H36.7156V8.57386C36.7156 9.29261 36.5621 9.91761 36.2553 10.4489C35.9513 10.9801 35.5309 11.392 34.994 11.6847C34.4599 11.9744 33.8462 12.1193 33.1531 12.1193C32.3803 12.1193 31.7013 11.9375 31.1161 11.5739C30.5337 11.2102 30.0792 10.6932 29.7525 10.0227C29.4286 9.35227 29.2667 8.55682 29.2667 7.63636C29.2667 6.94602 29.359 6.32528 29.5437 5.77415C29.7312 5.22017 29.9954 4.74858 30.3363 4.35938C30.6772 3.97017 31.0806 3.67188 31.5465 3.46449C32.0124 3.2571 32.5252 3.15341 33.0849 3.15341C33.5451 3.15341 33.9741 3.22301 34.3718 3.36222C34.7724 3.49858 35.1289 3.69318 35.4414 3.94602C35.7567 4.19602 36.0195 4.49574 36.2298 4.84517C36.44 5.19176 36.5849 5.5767 36.6644 6H35.5735ZM45.8892 7.63636C45.8892 8.55682 45.723 9.35227 45.3906 10.0227C45.0582 10.6932 44.6023 11.2102 44.0227 11.5739C43.4432 11.9375 42.7813 12.1193 42.0369 12.1193C41.2926 12.1193 40.6307 11.9375 40.0511 11.5739C39.4716 11.2102 39.0156 10.6932 38.6832 10.0227C38.3509 9.35227 38.1847 8.55682 38.1847 7.63636C38.1847 6.71591 38.3509 5.92045 38.6832 5.25C39.0156 4.57955 39.4716 4.0625 40.0511 3.69886C40.6307 3.33523 41.2926 3.15341 42.0369 3.15341C42.7813 3.15341 43.4432 3.33523 44.0227 3.69886C44.6023 4.0625 45.0582 4.57955 45.3906 5.25C45.723 5.92045 45.8892 6.71591 45.8892 7.63636ZM44.8665 7.63636C44.8665 6.88068 44.7401 6.2429 44.4872 5.72301C44.2372 5.20312 43.8977 4.80966 43.4688 4.54261C43.0426 4.27557 42.5653 4.14205 42.0369 4.14205C41.5085 4.14205 41.0298 4.27557 40.6009 4.54261C40.1747 4.80966 39.8352 5.20312 39.5824 5.72301C39.3324 6.2429 39.2074 6.88068 39.2074 7.63636C39.2074 8.39205 39.3324 9.02983 39.5824 9.54972C39.8352 10.0696 40.1747 10.4631 40.6009 10.7301C41.0298 10.9972 41.5085 11.1307 42.0369 11.1307C42.5653 11.1307 43.0426 10.9972 43.4688 10.7301C43.8977 10.4631 44.2372 10.0696 44.4872 9.54972C44.7401 9.02983 44.8665 8.39205 44.8665 7.63636Z"
              fill="black"
            />
          </svg>